<?xml version="1.0" standalone="no"?>
<!DOCTYPE svg PUBLIC "-//W3C//DTD SVG 20010904//EN"
 "http://www.w3.org/TR/2001/REC-SVG-20010904/DTD/svg10.dtd">
<svg version="1.0" xmlns="http://www.w3.org/2000/svg"
 width="3266.000000pt" height="3266.000000pt" viewBox="0 0 3266.000000 3266.000000"
 preserveAspectRatio="xMidYMid meet">
<metadata>
Created by potrace 1.14, written by Peter Selinger 2001-2017
</metadata>
<g transform="translate(0.000000,3266.000000) scale(0.100000,-0.100000)"
fill="#000000" stroke="none">
<path d="M16990 31167 c-3 -3 -52 -7 -110 -11 -58 -3 -116 -8 -130 -10 -14 -2
-52 -7 -85 -10 -33 -4 -71 -8 -85 -10 -14 -3 -42 -7 -63 -10 -342 -51 -674
-183 -882 -350 -67 -54 -102 -90 -151 -156 -140 -190 -260 -461 -324 -734 -23
-97 -26 -140 -35 -546 -7 -325 -12 -551 -20 -865 -3 -126 -7 -324 -10 -440 -3
-115 -7 -304 -10 -420 -3 -115 -7 -320 -10 -455 -3 -135 -7 -333 -10 -440 -4
-185 -9 -374 -20 -875 -3 -121 -7 -319 -10 -440 -11 -515 -16 -731 -20 -915
-2 -107 -7 -316 -10 -465 -3 -148 -8 -353 -10 -455 -2 -102 -7 -306 -10 -455
-3 -148 -8 -353 -10 -455 -3 -102 -7 -311 -11 -465 -3 -154 -7 -345 -9 -425
-2 -80 -7 -293 -10 -475 -4 -181 -8 -360 -9 -397 -2 -64 4 -82 19 -57 8 13 12
102 20 499 3 168 8 384 10 480 2 96 7 299 10 450 3 151 8 361 10 465 6 228 13
572 20 900 3 132 7 337 10 455 13 548 22 990 30 1360 3 151 8 358 10 460 3
102 7 291 10 420 3 129 7 330 10 445 5 222 13 574 20 915 21 969 24 1076 36
1149 6 37 13 80 16 96 7 42 71 253 90 295 118 265 200 386 392 579 220 220
330 284 595 345 195 46 312 55 626 50 157 -2 326 -6 375 -9 50 -2 203 -7 340
-9 138 -3 349 -8 470 -11 226 -5 537 -12 985 -20 357 -7 409 -12 604 -61 130
-33 416 -128 480 -161 182 -91 373 -245 501 -403 144 -177 221 -311 281 -485
25 -72 53 -171 60 -215 3 -14 9 -49 15 -79 6 -30 12 -64 14 -75 10 -70 27
-179 35 -226 5 -30 12 -73 15 -95 8 -61 14 -87 20 -93 5 -6 -1 465 -10 678
-12 324 -17 417 -20 454 -2 23 -6 69 -9 102 -23 243 -125 530 -279 789 -112
186 -226 324 -392 470 -76 67 -308 205 -345 205 -5 0 -18 4 -28 10 -56 31
-318 101 -484 129 -139 23 -210 30 -408 36 -85 3 -216 8 -290 10 -74 3 -200 8
-280 11 -80 3 -185 7 -235 10 -120 6 -1290 16 -1295 11z"/>
<path d="M26248 28375 c-2 -1 -24 -5 -50 -8 -87 -11 -296 -68 -375 -103 -17
-8 -34 -14 -37 -14 -8 0 -151 -66 -211 -97 -75 -39 -195 -113 -214 -132 -10
-9 -66 -61 -126 -116 -59 -55 -113 -105 -119 -110 -6 -6 -67 -62 -136 -125
-68 -63 -132 -122 -140 -130 -20 -18 -214 -198 -255 -236 -73 -67 -230 -211
-254 -234 -14 -14 -87 -81 -161 -149 -74 -69 -187 -173 -250 -231 -63 -59
-128 -120 -145 -134 -16 -15 -75 -69 -129 -119 -55 -51 -111 -103 -126 -117
-15 -14 -76 -70 -135 -125 -59 -55 -116 -107 -126 -116 -10 -8 -73 -67 -140
-130 -140 -130 -231 -214 -274 -254 -30 -27 -218 -201 -239 -220 -67 -63 -368
-341 -430 -399 -17 -15 -80 -74 -141 -130 -60 -57 -123 -115 -140 -130 -101
-93 -249 -231 -311 -289 -40 -38 -81 -76 -92 -85 -22 -20 -191 -176 -358 -331
-38 -36 -97 -91 -130 -121 -33 -30 -111 -102 -173 -160 -63 -58 -128 -118
-145 -134 -55 -50 -258 -239 -331 -307 -38 -36 -104 -96 -145 -135 -123 -113
-330 -304 -405 -375 -135 -125 -180 -168 -201 -186 -21 -18 -189 -173 -338
-313 -44 -41 -108 -100 -141 -130 -33 -31 -85 -79 -115 -107 -171 -158 -205
-192 -185 -192 11 0 45 23 76 52 99 94 431 402 452 419 10 10 72 66 136 126
64 60 142 133 175 163 102 94 110 102 226 209 62 58 122 113 134 123 12 10 72
66 134 124 62 59 121 113 131 122 10 9 70 65 134 125 64 59 126 116 138 126
11 11 75 70 141 132 67 62 126 118 132 123 6 6 67 62 136 125 69 63 130 120
136 125 6 6 66 62 134 125 68 63 151 140 184 170 33 30 89 82 125 116 36 34
78 72 92 85 15 13 79 73 142 133 64 59 127 117 139 128 13 11 50 45 83 76 34
31 117 109 185 172 68 63 153 143 189 176 37 34 89 82 116 107 28 25 66 60 86
78 20 19 84 79 144 134 59 55 122 114 140 130 17 17 60 57 96 89 59 54 242
224 328 304 19 18 74 69 121 112 47 43 102 94 121 112 20 18 82 75 138 127 56
52 117 108 135 125 18 17 84 78 146 136 200 184 253 233 335 310 103 96 87 81
200 185 55 50 108 99 120 110 135 133 423 284 665 348 170 46 266 56 496 53
116 -2 216 -6 220 -9 5 -3 30 -8 54 -12 234 -34 600 -291 900 -630 49 -56 179
-202 195 -219 6 -7 32 -36 59 -66 27 -30 102 -111 166 -180 64 -69 148 -159
186 -200 38 -42 116 -127 174 -190 58 -62 122 -132 143 -154 48 -51 225 -241
261 -281 84 -91 242 -261 313 -336 175 -181 262 -309 398 -584 86 -174 136
-297 149 -368 2 -15 7 -35 10 -45 27 -83 38 -333 22 -482 -20 -181 -48 -300
-103 -440 -66 -166 -133 -271 -363 -575 -75 -99 -140 -187 -144 -195 -14 -25
378 364 564 560 289 304 353 381 441 527 111 184 218 454 255 643 3 14 7 32 9
40 2 8 7 38 11 65 3 28 8 59 11 70 11 43 12 344 2 415 -31 227 -133 463 -324
750 -78 117 -167 232 -254 325 -101 109 -275 302 -318 351 -16 18 -149 167
-178 198 -6 6 -48 54 -95 106 -47 52 -89 100 -95 106 -32 35 -231 251 -295
318 -103 109 -507 514 -550 551 -19 16 -69 59 -110 94 -337 287 -700 479
-1001 527 -39 6 -226 14 -231 9z"/>
<path d="M9789 28246 c-2 -2 -26 -6 -54 -9 -229 -26 -547 -165 -835 -366 -78
-54 -530 -431 -841 -702 -31 -27 -69 -59 -85 -71 -16 -12 -34 -27 -40 -33 -6
-5 -39 -35 -74 -65 -65 -56 -316 -276 -336 -295 -6 -5 -48 -44 -94 -85 -249
-225 -489 -467 -606 -610 -16 -19 -31 -37 -35 -40 -3 -3 -25 -32 -50 -65 -24
-33 -46 -62 -50 -65 -3 -3 -35 -50 -71 -105 -118 -180 -206 -369 -247 -531
-30 -117 -32 -131 -36 -229 -8 -201 63 -475 191 -744 48 -101 118 -228 134
-241 3 -3 32 -36 65 -75 33 -38 67 -76 75 -85 21 -23 66 -75 130 -150 30 -35
62 -72 70 -80 8 -9 40 -45 71 -81 31 -35 89 -102 130 -149 40 -47 78 -90 84
-96 5 -6 33 -37 60 -69 28 -32 55 -63 60 -69 6 -6 42 -47 80 -91 38 -44 96
-111 130 -150 34 -38 73 -83 86 -99 13 -16 29 -34 34 -40 6 -6 197 -225 425
-486 227 -261 432 -495 454 -520 37 -41 80 -90 192 -220 43 -50 77 -89 144
-165 25 -28 70 -80 100 -115 30 -34 60 -68 65 -74 6 -6 39 -45 75 -86 36 -41
67 -77 70 -80 3 -3 50 -57 105 -120 54 -63 102 -117 105 -120 3 -3 34 -39 70
-80 36 -41 77 -88 91 -105 15 -16 127 -145 249 -285 123 -140 248 -284 279
-319 31 -36 63 -72 71 -81 8 -9 58 -65 110 -125 52 -61 106 -123 121 -140 54
-61 125 -142 179 -204 30 -35 60 -69 65 -75 6 -6 56 -63 110 -126 55 -63 102
-117 105 -120 3 -3 34 -39 70 -80 36 -41 79 -91 96 -110 51 -58 187 -213 214
-244 14 -16 30 -34 35 -40 6 -6 39 -45 75 -86 36 -41 77 -88 92 -105 14 -16
36 -41 48 -55 12 -14 45 -52 74 -85 29 -33 102 -116 162 -185 60 -69 123 -141
140 -160 17 -19 80 -91 140 -160 60 -69 115 -131 122 -139 16 -16 21 -11 -98
-93 -340 -232 -588 -590 -650 -936 -19 -108 -15 -247 11 -342 52 -194 155
-325 459 -580 392 -328 498 -493 498 -770 0 -603 -643 -1054 -1238 -869 -108
34 -234 102 -313 169 -162 137 -256 312 -298 555 -7 39 -14 72 -15 74 -2 2
-25 -13 -51 -32 -46 -34 -51 -43 -111 -194 -35 -87 -70 -171 -77 -188 -7 -16
-37 -88 -65 -158 -61 -148 -62 -137 31 -239 160 -178 369 -282 629 -314 61 -8
265 -8 331 0 225 26 441 90 644 191 438 216 772 564 919 958 47 126 68 231 72
367 4 128 -10 209 -51 289 -28 56 -125 179 -182 231 -82 76 -194 171 -328 280
-399 325 -477 439 -477 694 1 327 172 606 437 712 l67 27 32 -35 c17 -19 58
-66 91 -104 67 -77 75 -85 87 -78 9 6 -13 39 -62 94 -86 97 -111 130 -98 131
118 12 220 0 283 -33 91 -49 158 -182 196 -390 7 -38 17 -68 22 -68 5 0 22 10
37 23 15 12 38 30 51 39 13 9 86 62 162 118 l137 102 -6 46 c-8 62 -46 176
-77 230 -33 59 -97 124 -157 161 -28 17 -50 28 -50 26 0 -3 -12 1 -27 8 -37
19 -92 28 -189 33 -142 7 -316 -34 -472 -109 l-63 -31 -22 26 c-12 14 -49 56
-83 94 -34 38 -108 123 -164 189 -57 66 -106 122 -110 125 -6 6 -56 63 -345
395 -115 132 -224 256 -241 275 -39 43 -310 354 -379 435 -27 32 -57 65 -66
74 -8 9 -60 68 -115 131 -54 63 -103 120 -109 126 -5 6 -35 39 -65 74 -30 35
-71 82 -91 104 -34 39 -524 598 -560 641 -10 11 -27 31 -39 45 -12 14 -36 41
-53 60 -18 19 -57 64 -87 100 -30 36 -60 70 -66 75 -6 6 -102 116 -214 245
-112 129 -207 237 -210 240 -3 3 -34 39 -70 80 -36 41 -77 88 -91 105 -15 16
-64 73 -109 125 -135 155 -463 530 -626 715 -29 33 -61 70 -71 81 -107 125
-147 170 -181 209 -15 17 -56 64 -92 105 -36 41 -69 80 -75 86 -5 6 -35 39
-65 74 -30 35 -59 68 -65 74 -5 6 -39 45 -75 86 -36 41 -67 77 -70 80 -3 3
-30 34 -60 70 -30 36 -60 69 -66 75 -25 23 -154 176 -171 202 -9 15 -20 30
-23 33 -35 32 -156 271 -200 395 -37 106 -77 265 -87 350 -4 33 -8 128 -7 210
1 368 33 499 174 715 152 232 259 342 685 705 28 24 70 60 95 80 54 45 142
121 179 154 89 80 113 102 176 156 39 33 72 62 75 65 3 3 55 48 115 100 93 80
187 162 415 364 19 17 69 60 110 96 41 36 77 67 80 70 3 3 57 50 120 105 63
55 147 129 187 166 126 116 330 241 555 340 51 22 107 47 123 55 79 37 226 77
321 89 27 3 65 8 84 11 75 11 249 6 360 -11 63 -9 116 -18 130 -21 8 -2 44
-10 80 -18 151 -33 319 -111 494 -228 45 -30 209 -158 306 -237 134 -110 190
-151 170 -126 -78 101 -794 831 -877 895 -25 19 -51 40 -57 47 -39 36 -218
144 -331 199 -181 89 -446 173 -599 190 -28 3 -55 8 -59 11 -9 6 -322 14 -328
9z"/>
<path d="M22316 19775 c5 -12 26 -15 98 -16 113 -1 314 -5 651 -13 423 -10
665 -16 919 -21 132 -3 241 -6 242 -8 2 -2 -15 -48 -37 -103 -23 -54 -65 -157
-94 -229 -53 -129 -66 -162 -90 -220 -7 -16 -119 -291 -249 -610 -130 -319
-241 -589 -246 -600 -5 -11 -32 -76 -60 -145 -28 -69 -55 -134 -60 -145 -4
-11 -22 -54 -38 -95 -17 -41 -60 -149 -97 -240 -375 -922 -446 -1118 -550
-1515 -37 -138 -95 -401 -109 -490 -2 -16 -8 -50 -11 -75 -4 -25 -9 -52 -10
-60 -2 -8 -6 -44 -10 -80 -25 -224 -33 -420 -21 -526 13 -110 67 -237 131
-305 83 -90 181 -123 281 -94 109 32 280 196 472 453 57 77 302 438 302 446 0
2 26 47 59 99 l58 97 26 -29 c14 -16 24 -31 22 -33 -5 -4 -34 -110 -41 -148
-3 -14 -9 -41 -14 -60 -51 -206 -25 -548 53 -680 66 -113 174 -153 312 -116
97 26 184 79 313 194 l84 74 41 -43 c48 -52 155 -165 402 -423 99 -104 187
-196 195 -206 8 -10 88 -94 177 -187 89 -93 170 -178 180 -190 10 -11 95 -101
189 -199 95 -99 186 -195 204 -214 18 -19 103 -109 189 -200 87 -91 172 -181
190 -200 18 -19 101 -107 184 -194 84 -88 197 -207 252 -265 55 -58 143 -150
196 -206 53 -55 110 -116 128 -135 18 -19 105 -110 193 -203 89 -92 168 -176
177 -186 9 -10 93 -99 186 -197 94 -98 202 -212 242 -254 39 -41 95 -100 125
-131 124 -131 348 -366 374 -395 16 -17 92 -97 168 -177 163 -172 244 -284
331 -460 132 -266 177 -463 178 -772 0 -280 -21 -388 -110 -555 -141 -265
-292 -438 -702 -809 -81 -73 -169 -156 -272 -255 -106 -103 -149 -143 -374
-355 -44 -41 -139 -131 -211 -200 -71 -69 -204 -196 -294 -281 -90 -85 -216
-205 -279 -266 -64 -62 -136 -129 -161 -150 -186 -156 -646 -388 -842 -424
-29 -6 -63 -12 -75 -14 -161 -32 -438 -20 -638 26 -27 6 -52 11 -55 11 -3 0
-34 10 -70 22 -214 73 -339 149 -735 443 -60 45 -111 80 -113 78 -3 -4 228
-234 374 -372 77 -74 279 -262 304 -284 13 -11 52 -47 85 -78 105 -98 164
-144 274 -216 80 -52 301 -166 323 -166 7 0 22 -6 33 -13 11 -8 29 -16 40 -20
11 -3 73 -21 137 -41 65 -19 137 -38 160 -41 24 -4 45 -8 49 -11 7 -4 55 -11
149 -22 81 -9 304 -8 390 1 325 35 761 283 1140 647 14 14 84 79 156 145 71
65 131 122 134 125 3 3 30 28 60 55 504 456 1070 1011 1220 1195 25 30 48 57
51 60 11 9 123 153 175 225 181 252 313 538 357 775 22 116 17 284 -12 411
-12 51 -57 203 -70 234 -5 11 -19 45 -31 75 -36 89 -135 280 -182 351 -37 57
-113 143 -305 344 -151 160 -249 262 -388 409 -88 93 -199 210 -246 260 -48
50 -101 107 -119 126 -18 19 -98 104 -179 189 -80 84 -161 170 -180 190 -18
20 -75 79 -125 131 -50 53 -131 138 -180 190 -93 99 -169 179 -442 466 -89 93
-176 185 -194 204 -18 19 -99 105 -180 190 -81 85 -167 175 -190 200 -23 25
-108 115 -190 200 -81 85 -162 171 -180 190 -18 19 -101 106 -184 194 -83 87
-162 170 -175 185 -13 14 -93 98 -177 186 -84 88 -176 185 -204 215 -28 30
-86 91 -128 135 -97 101 -405 425 -463 486 -24 26 -107 113 -184 194 -77 82
-152 160 -166 174 -14 14 -39 42 -57 62 l-31 35 40 45 c231 255 454 595 550
835 57 144 91 342 69 400 -29 74 -110 -27 -262 -324 -44 -87 -103 -195 -132
-242 -60 -100 -208 -253 -278 -290 l-48 -25 -30 30 -30 30 34 125 c120 449
338 1083 560 1630 47 115 57 139 81 195 50 113 71 174 61 177 -6 2 -154 4
-330 3 l-319 -1 -37 -114 c-21 -63 -86 -263 -145 -445 -59 -181 -116 -357
-127 -390 -18 -55 -74 -189 -134 -322 -43 -96 -221 -518 -229 -541 l-7 -24
-23 22 -23 22 48 96 c60 120 76 176 57 200 -24 31 -74 -5 -163 -118 -26 -33
-48 -60 -50 -60 -3 0 0 -4 -190 196 -201 211 -234 246 -234 251 0 4 126 327
140 358 11 25 29 68 355 890 146 369 272 684 279 700 7 17 53 130 101 253 82
211 88 222 113 223 15 0 136 1 269 1 l241 0 16 72 c9 39 18 90 22 113 l6 41
-226 -1 c-170 -2 -226 1 -226 10 0 11 8 32 31 88 5 11 96 243 203 515 106 272
201 513 210 536 l17 41 97 -3 c93 -2 424 -9 902 -19 124 -3 320 -7 435 -10
116 -3 325 -7 465 -10 140 -3 347 -7 460 -10 113 -3 315 -7 450 -10 135 -3
351 -7 480 -10 129 -3 341 -8 470 -10 1314 -27 1584 -34 1635 -41 297 -39 587
-156 817 -329 93 -70 294 -269 363 -360 115 -150 176 -332 219 -650 13 -96 14
-520 1 -700 -2 -38 -6 -182 -9 -320 -3 -137 -7 -358 -11 -490 -6 -252 -11
-497 -20 -986 -5 -281 -10 -410 -19 -454 -4 -26 -17 -93 -23 -125 -20 -116
-135 -475 -180 -564 -104 -208 -237 -370 -435 -527 -118 -94 -180 -135 -290
-190 -127 -64 -339 -127 -513 -154 -22 -3 -69 -10 -105 -16 -36 -6 -81 -12
-100 -15 -19 -2 -82 -13 -140 -24 l-105 -19 355 5 c195 3 384 7 420 9 36 2
130 6 210 9 272 11 388 28 569 82 508 153 954 501 1133 885 61 131 155 464
173 618 4 30 8 62 10 72 7 33 15 175 20 319 4 133 12 353 20 570 27 715 27
1565 1 1730 -3 14 -7 52 -10 85 -4 33 -8 71 -10 85 -3 14 -7 41 -10 60 -68
433 -221 786 -427 989 -151 149 -548 336 -839 396 -91 19 -103 20 -565 30
-165 3 -374 8 -465 10 -91 2 -280 7 -420 10 -140 3 -336 7 -435 10 -99 2 -299
7 -445 10 -146 3 -346 8 -445 10 -99 2 -299 7 -445 10 -146 3 -357 7 -470 10
-113 3 -317 7 -455 10 -363 7 -706 15 -900 20 -93 2 -316 7 -495 10 -179 4
-379 8 -445 10 -66 2 -196 4 -288 5 -164 2 -169 2 -164 22 6 20 3 20 -126 13
-73 -4 -150 -8 -172 -11 -50 -5 -514 -4 -695 1 -74 2 -274 6 -445 10 -342 7
-583 12 -927 20 -201 5 -227 4 -222 -10z m1023 -3964 c31 -36 346 -365 369
-385 12 -11 22 -25 22 -31 0 -6 -29 -54 -65 -106 -36 -52 -71 -102 -77 -113
-11 -16 -26 -35 -75 -101 -119 -158 -200 -231 -267 -242 -30 -5 -34 -2 -45 28
-7 19 -17 43 -21 54 -36 87 -43 130 -37 249 7 128 8 137 33 256 20 93 36 147
84 275 21 55 40 108 44 118 7 22 15 22 35 -2z"/>
<path d="M6187 19584 c-1 -1 -72 -5 -157 -9 -85 -4 -173 -8 -195 -10 -22 -2
-85 -6 -140 -10 -112 -6 -166 -10 -281 -20 -43 -3 -106 -8 -139 -11 -65 -4
-148 -14 -180 -20 -11 -3 -36 -7 -55 -10 -19 -3 -80 -18 -135 -33 -502 -139
-983 -507 -1169 -894 -49 -101 -118 -320 -140 -442 -3 -16 -8 -39 -10 -50 -2
-11 -7 -40 -11 -65 -4 -25 -9 -53 -11 -64 -4 -23 -13 -105 -19 -176 -5 -66 -5
-1596 0 -1760 7 -223 16 -436 20 -490 2 -30 7 -89 10 -130 3 -41 8 -91 10
-110 3 -19 7 -57 10 -85 4 -27 8 -57 10 -65 2 -8 7 -35 10 -60 6 -46 15 -97
19 -115 2 -5 6 -28 11 -50 22 -114 91 -342 132 -435 107 -243 238 -424 384
-530 163 -119 443 -240 679 -293 34 -8 32 -8 97 -23 48 -12 173 -13 713 -8
1019 9 2013 19 2815 29 171 2 558 7 860 10 303 3 692 8 865 10 173 2 542 7
820 10 278 3 649 8 825 10 176 2 572 7 880 11 308 3 666 7 795 9 129 2 288 4
354 4 102 1 117 3 106 15 -10 13 -54 14 -278 11 -147 -2 -517 -7 -822 -10
-305 -3 -712 -8 -905 -10 -192 -2 -579 -7 -860 -10 -280 -3 -658 -8 -840 -10
-181 -2 -568 -7 -860 -10 -291 -3 -667 -8 -835 -10 -265 -4 -819 -10 -1675
-20 -495 -6 -911 -6 -938 -1 -15 3 -55 11 -90 16 -177 31 -403 112 -562 203
-126 72 -279 195 -415 335 -156 160 -212 263 -273 497 -27 103 -30 117 -47
220 -5 33 -12 76 -16 95 -3 19 -8 229 -10 465 -5 654 -13 1356 -20 1800 -8
523 -8 520 12 685 5 46 52 259 59 270 2 4 6 17 9 31 2 13 21 78 41 144 95 313
266 553 560 782 168 131 340 212 584 273 105 27 171 40 429 86 124 22 142 33
49 31 -43 -1 -79 -3 -80 -3z"/>
<path d="M14797 18504 c-102 -31 -253 -137 -307 -214 -25 -35 -25 -36 -25
-275 l0 -241 25 -31 c36 -45 91 -65 197 -71 225 -12 329 48 369 213 22 94 28
347 9 433 -35 159 -134 227 -268 186z"/>
<path d="M25327 18509 c-48 -11 -105 -40 -190 -97 -80 -53 -139 -117 -153
-164 -5 -18 -9 -118 -8 -223 2 -277 -1 -253 43 -295 53 -51 113 -64 250 -57
162 8 232 43 275 139 23 50 29 75 42 173 7 54 7 264 0 295 -4 14 -8 37 -11 52
-25 134 -124 205 -248 177z"/>
<path d="M18103 17452 c-44 -36 -80 -73 -156 -161 -53 -60 -208 -275 -302
-416 -205 -308 -294 -505 -249 -549 26 -27 46 -7 197 195 178 238 204 269 226
269 31 0 46 -46 44 -134 -1 -100 -29 -189 -149 -481 -47 -115 -101 -255 -120
-310 -19 -55 -39 -109 -44 -120 -8 -18 -29 -79 -132 -375 -57 -167 -99 -285
-108 -305 -5 -11 -20 -54 -33 -95 -14 -41 -44 -127 -67 -190 -23 -63 -47 -133
-54 -155 -7 -22 -43 -124 -80 -226 -36 -103 -66 -190 -66 -194 0 -6 92 -2 210
10 25 3 65 7 90 9 25 3 83 8 130 11 47 4 101 8 120 10 19 2 71 6 115 10 102 8
112 11 118 38 3 12 28 96 57 187 28 91 60 194 70 230 10 36 51 180 90 320 40
140 79 280 87 310 28 106 144 481 163 525 4 11 20 56 36 100 15 44 38 103 51
132 12 28 23 57 23 63 0 6 31 70 68 143 109 213 316 517 446 654 69 74 132
116 144 97 4 -6 19 -14 34 -18 30 -7 53 -42 64 -97 14 -64 7 -292 -11 -394
-47 -261 -130 -547 -267 -920 -90 -242 -158 -435 -163 -458 -2 -10 -13 -44
-24 -75 -16 -46 -32 -100 -46 -152 -19 -71 -28 -139 -26 -195 8 -311 146 -472
409 -479 214 -6 418 56 554 167 75 62 117 105 205 215 86 106 81 99 173 239
83 126 85 129 115 183 l25 45 -8 -55 c-14 -109 -8 -310 12 -385 69 -256 238
-429 411 -420 218 12 402 160 530 426 l33 70 10 -33 c5 -18 17 -58 25 -88 59
-211 71 -242 111 -286 52 -56 132 -87 226 -86 75 1 140 23 221 75 123 80 292
256 452 472 37 50 70 95 75 100 17 21 111 163 162 245 87 140 188 364 206 453
2 10 5 26 8 35 18 62 22 176 7 215 -24 61 -42 39 -176 -208 -45 -82 -99 -181
-120 -220 -21 -38 -41 -72 -45 -75 -4 -3 -9 -12 -12 -20 -3 -9 -33 -52 -67
-97 -73 -97 -180 -198 -248 -235 l-49 -27 -29 23 -30 24 23 78 c66 223 216
574 505 1174 199 415 340 786 408 1070 18 77 20 100 7 101 -7 0 -33 3 -58 7
-58 8 -304 9 -352 1 -20 -4 -55 -17 -79 -30 -36 -21 -44 -31 -54 -72 -7 -27
-20 -56 -29 -65 -15 -15 -20 -14 -71 11 -30 14 -93 52 -140 82 -48 31 -100 61
-117 67 -83 29 -255 -23 -408 -124 -118 -77 -322 -278 -458 -450 -131 -165
-359 -507 -460 -688 -14 -25 -41 -74 -61 -110 -105 -189 -233 -479 -286 -650
-12 -39 -33 -73 -67 -110 -28 -30 -76 -84 -107 -119 -84 -96 -188 -198 -248
-242 -107 -79 -239 -133 -357 -145 -33 -4 -64 -8 -68 -10 -10 -6 -70 57 -83
89 -10 25 -9 41 10 106 32 109 79 248 193 566 159 448 191 548 247 775 46 191
62 301 63 435 1 342 -119 527 -358 551 -115 11 -277 -60 -650 -286 -81 -49
-144 -91 -192 -127 l-58 -44 -1 38 c-2 85 -15 227 -24 271 -45 219 -125 322
-249 322 -36 0 -53 -7 -93 -38z m3874 -333 c13 -7 25 -27 31 -51 9 -36 6 -53
-28 -153 -67 -192 -172 -443 -320 -760 -107 -228 -308 -633 -373 -751 -25 -43
-57 -101 -72 -129 -56 -100 -174 -271 -219 -315 -80 -79 -150 -68 -176 26 -20
69 -19 134 5 314 16 128 88 363 173 565 43 103 201 426 258 525 193 337 417
632 546 718 64 42 108 44 175 11z"/>
<path d="M16904 17447 c-74 -19 -124 -53 -124 -84 0 -35 -29 -93 -47 -93 -20
0 -88 36 -168 90 -140 95 -188 106 -305 75 -53 -14 -210 -87 -234 -109 -6 -6
-36 -30 -66 -53 -133 -101 -301 -290 -473 -532 -273 -383 -509 -781 -631
-1066 -10 -22 -24 -53 -32 -70 -21 -46 -72 -190 -100 -283 -68 -228 -90 -451
-60 -602 23 -111 54 -185 118 -281 75 -114 177 -180 278 -181 233 -2 415 135
549 412 67 139 46 67 -38 -130 l-78 -184 -139 -63 c-981 -446 -1518 -939
-1634 -1500 -28 -136 -23 -327 11 -429 34 -100 84 -177 159 -246 108 -99 234
-148 385 -148 376 0 749 325 1148 1000 148 251 288 527 429 845 22 50 46 104
53 120 25 54 100 237 154 372 l53 132 61 30 c364 182 771 539 1152 1011 42 52
83 103 91 113 24 29 27 29 -71 7 -33 -7 -66 -13 -73 -13 -13 0 -32 -21 -152
-157 -331 -378 -638 -648 -867 -764 l-53 -26 24 52 c13 29 40 89 61 133 66
143 87 190 100 220 7 17 22 50 33 75 11 25 48 110 82 190 63 148 79 186 104
243 8 17 38 88 67 157 28 69 57 139 65 155 7 17 41 98 75 180 33 83 81 200
106 260 25 61 72 178 104 260 33 83 64 159 69 170 47 104 218 594 235 673 5
27 4 32 -12 33 -10 0 -27 2 -38 5 -57 12 -323 13 -371 1z m-327 -328 c24 -20
41 -62 36 -92 -6 -41 -111 -331 -157 -430 -14 -32 -26 -60 -26 -62 0 -5 -63
-146 -170 -380 -47 -103 -344 -701 -381 -765 -190 -338 -298 -480 -365 -482
-74 -2 -106 52 -106 182 -1 281 97 610 306 1029 216 431 503 850 668 975 69
52 150 62 195 25z m-1155 -3001 c-46 -123 -123 -314 -132 -330 -5 -10 -10 -22
-10 -27 0 -13 -186 -451 -245 -575 -97 -208 -229 -463 -267 -518 -10 -14 -18
-29 -18 -32 0 -10 -89 -146 -148 -226 -76 -104 -187 -209 -257 -245 -112 -56
-253 -30 -334 61 -98 111 -114 357 -39 594 19 59 104 248 117 260 3 3 12 17
20 33 17 31 137 192 185 245 109 124 276 278 421 390 44 35 85 66 90 70 40 32
236 158 311 201 133 76 318 167 322 159 2 -4 -5 -31 -16 -60z"/>
<path d="M14074 17088 c-3 -4 -25 -69 -50 -145 -50 -155 -147 -455 -149 -463
-1 -3 -4 -12 -8 -20 -3 -8 -31 -94 -62 -190 -35 -108 -116 -312 -211 -532
-213 -492 -257 -619 -285 -833 -11 -85 -8 -301 6 -385 25 -149 93 -263 183
-302 79 -35 211 -15 321 49 120 69 276 215 422 393 265 325 442 629 504 870
22 83 33 210 23 248 -26 93 -107 -10 -286 -361 -90 -176 -147 -265 -223 -351
-51 -56 -181 -156 -203 -156 -6 0 -24 12 -40 26 l-29 25 17 67 c23 91 22 86
50 182 53 186 77 264 137 446 62 191 202 592 219 629 5 11 25 61 44 110 68
182 239 601 271 668 12 24 12 27 -3 28 -75 5 -645 2 -648 -3z"/>
<path d="M21205 12502 c-6 -4 -11 -84 -11 -192 -2 -194 -12 -1200 -19 -1765
-2 -181 -6 -573 -10 -870 -3 -297 -8 -720 -10 -940 -3 -220 -7 -607 -10 -860
-7 -712 -15 -1398 -20 -1875 -3 -239 -7 -646 -10 -905 -3 -258 -7 -499 -10
-535 -11 -128 -70 -362 -121 -479 -110 -250 -194 -372 -388 -567 -209 -210
-331 -284 -541 -330 -5 -1 -28 -7 -50 -13 -22 -5 -57 -13 -79 -17 -21 -3 -48
-8 -60 -10 -11 -2 -41 -7 -66 -9 -25 -3 -76 -10 -115 -14 -70 -9 -422 -7 -720
3 -88 3 -470 8 -850 12 -1038 9 -1248 12 -1272 17 -11 3 -43 8 -70 12 -127 17
-490 124 -621 182 -174 77 -359 217 -492 373 -25 29 -59 69 -76 89 -50 57
-129 180 -172 266 -82 164 -123 310 -178 635 -20 118 -38 222 -39 230 -2 8 -4
27 -4 43 -1 15 -5 27 -9 27 -8 0 -8 -33 3 -390 8 -280 9 -307 30 -665 11 -200
38 -343 96 -519 153 -459 474 -869 826 -1054 88 -46 234 -97 391 -136 119 -30
172 -40 302 -61 91 -14 169 -18 625 -30 99 -2 304 -7 455 -11 515 -14 1335 -8
1490 10 19 3 60 7 90 10 53 6 113 13 175 21 224 30 529 118 700 202 130 65
291 178 357 251 149 164 311 513 379 812 25 113 22 -49 44 1900 2 173 6 524 9
780 9 737 15 1285 21 1840 3 283 8 688 10 900 5 376 12 1081 20 1805 9 888 17
1580 19 1693 2 124 -2 147 -19 134z"/>
<path d="M16834 11253 c-192 -190 -735 -728 -1207 -1197 -472 -468 -993 -984
-1157 -1146 -164 -162 -698 -692 -1187 -1176 -1434 -1423 -1749 -1733 -1783
-1757 -14 -9 -44 -30 -67 -46 -206 -147 -482 -255 -753 -297 -71 -10 -387 -12
-470 -2 -148 18 -280 71 -459 186 -206 132 -292 208 -638 568 -169 176 -607
620 -1258 1276 -394 396 -442 461 -624 825 -147 294 -188 560 -141 908 45 329
117 481 438 935 61 85 108 157 106 159 -3 3 -26 -18 -52 -46 -26 -28 -81 -87
-122 -131 -161 -169 -410 -445 -579 -642 -196 -228 -352 -549 -421 -867 -21
-99 -24 -113 -39 -238 -9 -68 -6 -326 4 -395 22 -153 55 -252 142 -424 133
-265 274 -455 534 -721 70 -71 151 -155 181 -186 529 -554 908 -934 1169
-1174 126 -115 145 -132 254 -219 61 -48 117 -93 125 -99 60 -48 280 -187 373
-235 150 -78 337 -150 432 -167 17 -2 41 -7 55 -10 245 -53 520 4 875 182 229
115 235 120 857 735 315 311 670 662 788 779 118 116 583 577 1033 1023 450
446 945 937 1100 1090 155 153 679 673 1165 1155 486 482 1068 1059 1294 1282
273 270 405 408 396 412 -9 3 -137 -116 -364 -340z"/>
</g>
</svg>
